<svg xmlns="http://www.w3.org/2000/svg" viewBox="0 0 1867.91 600"><defs><style>.cls-1{fill:#f1b90c;}.cls-2{fill:#f3c355;}.cls-3{fill:#edcf6d;}</style></defs><title>Asset 3</title><g id="Layer_2" data-name="Layer 2"><g id="Layer_1-2" data-name="Layer 1"><path class="cls-1" d="M511.62,87.37,400,199,369.9,229.1a99.5,99.5,0,0,0-140,.24L88.13,87.62Q93.91,81.85,100,76.4a299.74,299.74,0,0,1,400,0Q506,81.72,511.62,87.37Z"/><path class="cls-2" d="M200.44,300a99.2,99.2,0,0,0,28.66,69.89L200,399,87.37,511.63a299.79,299.79,0,0,1,.76-424L229.85,229.34A99.28,99.28,0,0,0,200.44,300Z"/><path class="cls-3" d="M512.38,511.87q-6,6-12.38,11.73a299.74,299.74,0,0,1-400,0q-6.5-5.79-12.63-12L200,399l29.1-29.11a99.47,99.47,0,0,0,141.55.25L400,399.49Z"/><path class="cls-1" d="M596.94,226.33a7.85,7.85,0,0,1,3.68,5.39,8.31,8.31,0,0,1-1.84,6.45,5.84,5.84,0,0,1-4.61,2.76,12.1,12.1,0,0,1-5.65-1.19,82.44,82.44,0,0,0-21.31-10.25,80,80,0,0,0-24.46-3.69,76.37,76.37,0,0,0-29.85,5.79,72.31,72.31,0,0,0-24.07,16.31,73.76,73.76,0,0,0-15.92,25,93.24,93.24,0,0,0,.14,64.31,74,74,0,0,0,16.17,25.12,70.72,70.72,0,0,0,24.07,16,77.8,77.8,0,0,0,29.46,5.53,79.11,79.11,0,0,0,24.33-3.68,94,94,0,0,0,21.44-10A8.24,8.24,0,0,1,594,369a7.64,7.64,0,0,1,5,3,8.26,8.26,0,0,1,1.58,6.31,6.48,6.48,0,0,1-3.42,5,105.77,105.77,0,0,1-15.52,8,100.7,100.7,0,0,1-18.94,5.92,97,97,0,0,1-20,2.11,93.09,93.09,0,0,1-35.64-6.84,90.28,90.28,0,0,1-49.58-49.19q-7.36-17.36-7.37-38.67a95.45,95.45,0,0,1,7.24-37.61,94.23,94.23,0,0,1,19.85-29.86,90.54,90.54,0,0,1,29.46-19.85,91.67,91.67,0,0,1,36-7.11,99.69,99.69,0,0,1,28.93,4.21A92.91,92.91,0,0,1,596.94,226.33Z"/><path class="cls-1" d="M638.23,396.78a7.88,7.88,0,0,1-8.15-7.89V271.05a7.57,7.57,0,0,1,2.37-5.53,7.85,7.85,0,0,1,5.78-2.37,7.45,7.45,0,0,1,5.66,2.37,7.8,7.8,0,0,1,2.23,5.53V310.5l-3.94.79a60.15,60.15,0,0,1,4.6-18.28,62.54,62.54,0,0,1,10.39-16.7,52.5,52.5,0,0,1,15.65-12.37,43.5,43.5,0,0,1,20.39-4.73,22.62,22.62,0,0,1,9.2,2c3,1.32,4.48,3.47,4.48,6.45a8.21,8.21,0,0,1-2.11,6.05,6.83,6.83,0,0,1-5,2.1,12,12,0,0,1-5.12-1.32,17.11,17.11,0,0,0-7.24-1.31,28.83,28.83,0,0,0-14.73,4.34,50.66,50.66,0,0,0-13.41,11.71,60,60,0,0,0-9.6,16.43,49.81,49.81,0,0,0-3.56,18.29v65a8.08,8.08,0,0,1-7.89,7.89Z"/><path class="cls-1" d="M831.83,260a7.44,7.44,0,0,1,5.65,2.37,7.77,7.77,0,0,1,2.24,5.52v116q0,21.3-8.42,35.9a55.89,55.89,0,0,1-22.62,22.1q-14.2,7.5-32.35,7.49a83.16,83.16,0,0,1-20.92-2.49,58.79,58.79,0,0,1-15.65-6.19,12.54,12.54,0,0,1-4.73-4.6,5.88,5.88,0,0,1-.26-5.65,7.7,7.7,0,0,1,4.07-4.87,6.72,6.72,0,0,1,5.66.13q4.47,2.37,12.89,5.79a50.65,50.65,0,0,0,19.2,3.42q14.46,0,25-6.05A41.89,41.89,0,0,0,818,411.38q5.91-11.44,5.92-27.23V365.21l1.84,6.58A45.64,45.64,0,0,1,814.47,386a56.64,56.64,0,0,1-16.57,9.87,54.58,54.58,0,0,1-19.73,3.55q-15.78,0-26.17-6.45a39.65,39.65,0,0,1-15.52-17.75q-5.13-11.31-5.13-26.57V267.89A7.86,7.86,0,0,1,739.5,260a7.47,7.47,0,0,1,5.66,2.37,7.8,7.8,0,0,1,2.23,5.52v78.38q0,18.42,8,28.41t26.18,10a41.26,41.26,0,0,0,20.78-5.4,46.39,46.39,0,0,0,15.52-14.2,32.64,32.64,0,0,0,6.05-18.81V267.89a8,8,0,0,1,2.1-5.52A7.34,7.34,0,0,1,831.83,260Z"/><path class="cls-1" d="M944.93,261.31q17.88,0,31.7,8.81a63.28,63.28,0,0,1,22,24.2q8.14,15.39,8.16,35.38t-8.16,35.51a63.54,63.54,0,0,1-22.09,24.47,56.78,56.78,0,0,1-31.31,8.94,55,55,0,0,1-17.49-2.76,59.3,59.3,0,0,1-15.12-7.5,58.41,58.41,0,0,1-12.1-11.18,57.4,57.4,0,0,1-8.42-13.81l4.74-3.68v81.8a7.81,7.81,0,0,1-2.24,5.53,7.44,7.44,0,0,1-5.66,2.36,7.85,7.85,0,0,1-5.78-2.36,7.57,7.57,0,0,1-2.37-5.53V270a8.06,8.06,0,0,1,2.24-5.78,7.73,7.73,0,0,1,5.91-2.37,7.45,7.45,0,0,1,5.66,2.37A8.11,8.11,0,0,1,896.8,270V298.4l-3.69-2.1a45.72,45.72,0,0,1,7.76-14.6,53.11,53.11,0,0,1,27-18A61,61,0,0,1,944.93,261.31ZM943.62,276a45.07,45.07,0,0,0-25,7,48.65,48.65,0,0,0-17,18.94q-6.18,12-6.18,27.75a61.47,61.47,0,0,0,6.18,27.88,48,48,0,0,0,17,19.34,45,45,0,0,0,25,7,43.87,43.87,0,0,0,24.59-7A48.36,48.36,0,0,0,985,357.58a61.48,61.48,0,0,0,6.19-27.88A59.9,59.9,0,0,0,985,302.08,48.85,48.85,0,0,0,968.21,283,44,44,0,0,0,943.62,276Z"/><path class="cls-1" d="M1030.68,262.89H1092a7,7,0,0,1,5.26,2.24,7.58,7.58,0,0,1,2.1,5.39,7.18,7.18,0,0,1-7.36,7.36h-61.29a7.63,7.63,0,0,1-7.63-7.62,6.88,6.88,0,0,1,2.24-5.26A7.53,7.53,0,0,1,1030.68,262.89Zm27.09-37.09a7.47,7.47,0,0,1,5.66,2.37,7.83,7.83,0,0,1,2.23,5.52V365.74q0,7.36,2,11.05a9.8,9.8,0,0,0,5.12,4.86,17.9,17.9,0,0,0,6.32,1.19,10.51,10.51,0,0,0,3.81-.66,10.52,10.52,0,0,1,3.82-.66,5.4,5.4,0,0,1,4.07,1.84,6.7,6.7,0,0,1,1.71,4.74q0,3.67-4.21,6.18a19.17,19.17,0,0,1-10,2.5q-2.37,0-7.1-.4a26.6,26.6,0,0,1-9.74-2.89q-5-2.5-8.41-8.81t-3.42-18.15V233.69a7.6,7.6,0,0,1,2.36-5.52A7.88,7.88,0,0,1,1057.77,225.8Z"/><path class="cls-1" d="M1251.37,329.44q0,20-8.81,35.9a65.87,65.87,0,0,1-23.81,25,67.69,67.69,0,0,1-67.73,0,65.46,65.46,0,0,1-23.94-25q-8.82-15.9-8.81-35.9,0-20.25,8.81-36a66.9,66.9,0,0,1,23.94-25,66.93,66.93,0,0,1,67.73,0,67.34,67.34,0,0,1,23.81,25Q1251.37,309.18,1251.37,329.44Zm-16,0q0-16-6.57-28.54a50,50,0,0,0-18-19.6,50.83,50.83,0,0,0-51.82,0,50.88,50.88,0,0,0-18.15,19.6q-6.71,12.5-6.71,28.54t6.71,28.41a52.07,52.07,0,0,0,18.15,19.59,50,50,0,0,0,51.82,0,51.13,51.13,0,0,0,18-19.59Q1235.32,345.49,1235.32,329.44Z"/><path class="cls-1" d="M1357.89,212.65a50.09,50.09,0,0,1,26,6.71,48.54,48.54,0,0,1,17.89,18.54q6.57,11.83,6.58,27.36a56.6,56.6,0,0,1-6.58,27.22,50.78,50.78,0,0,1-17.89,19.34,48,48,0,0,1-26,7.1h-55.76l1.31-2.37v72.34a8.08,8.08,0,0,1-7.89,7.89,7.33,7.33,0,0,1-5.78-2.37,8,8,0,0,1-2.11-5.52V220.54a7.8,7.8,0,0,1,2.24-5.52,7.43,7.43,0,0,1,5.65-2.37Zm0,91a31.31,31.31,0,0,0,17.89-5.13,35.16,35.16,0,0,0,12-13.94,43.18,43.18,0,0,0,4.34-19.33,41.09,41.09,0,0,0-4.34-19.33,32.27,32.27,0,0,0-29.86-17.76h-55.76l1.31-2.1v79.17l-1.57-1.58Z"/><path class="cls-1" d="M1562,329.44q0,20-8.81,35.9a65.87,65.87,0,0,1-23.81,25,67.69,67.69,0,0,1-67.73,0,65.6,65.6,0,0,1-23.94-25q-8.81-15.9-8.81-35.9,0-20.25,8.81-36a67.05,67.05,0,0,1,23.94-25,66.93,66.93,0,0,1,67.73,0,67.34,67.34,0,0,1,23.81,25Q1562,309.18,1562,329.44Zm-16,0q0-16-6.57-28.54a50,50,0,0,0-18-19.6,50.83,50.83,0,0,0-51.82,0,50.88,50.88,0,0,0-18.15,19.6q-6.7,12.5-6.7,28.54t6.7,28.41a52.07,52.07,0,0,0,18.15,19.59,50,50,0,0,0,51.82,0,51.13,51.13,0,0,0,18-19.59Q1546,345.49,1546,329.44Z"/><path class="cls-1" d="M1718.51,329.44q0,20-8.81,35.9a65.92,65.92,0,0,1-23.8,25,67.71,67.71,0,0,1-67.74,0,65.51,65.51,0,0,1-23.93-25q-8.82-15.9-8.81-35.9,0-20.25,8.81-36a67,67,0,0,1,23.93-25,66.95,66.95,0,0,1,67.74,0,67.39,67.39,0,0,1,23.8,25Q1718.52,309.18,1718.51,329.44Zm-16,0q0-16-6.58-28.54a49.9,49.9,0,0,0-18-19.6,50.81,50.81,0,0,0-51.81,0,50.88,50.88,0,0,0-18.15,19.6q-6.72,12.5-6.71,28.54t6.71,28.41a52.07,52.07,0,0,0,18.15,19.59,50,50,0,0,0,51.81,0,51,51,0,0,0,18-19.59Q1702.46,345.49,1702.47,329.44Z"/><path class="cls-1" d="M1860,202.13a7.45,7.45,0,0,1,5.66,2.37,7.77,7.77,0,0,1,2.23,5.52V388.89a8.08,8.08,0,0,1-7.89,7.89,7.88,7.88,0,0,1-8.15-7.89V357.58l4.73-3.68a35.28,35.28,0,0,1-3.94,15.65,50.47,50.47,0,0,1-11.18,14.73,60,60,0,0,1-16.84,10.92,51.6,51.6,0,0,1-20.91,4.21,56,56,0,0,1-31.56-9.21,65,65,0,0,1-22.1-25q-8.14-15.78-8.15-36,0-20,8.15-35.91a63.83,63.83,0,0,1,22.1-25,56.12,56.12,0,0,1,31.3-9.07,54.81,54.81,0,0,1,20.78,3.94,57.23,57.23,0,0,1,17.23,10.79,50.45,50.45,0,0,1,11.7,15.65,41.9,41.9,0,0,1,4.21,18.28l-5.52-3.95V210a7.88,7.88,0,0,1,8.15-7.89Zm-54.71,182.55a43.34,43.34,0,0,0,24.73-7.24,49.7,49.7,0,0,0,17-19.72q6.18-12.5,6.18-28.54A63,63,0,0,0,1847,300.9a48.8,48.8,0,0,0-17-19.6,46.37,46.37,0,0,0-49.32,0,48.44,48.44,0,0,0-17.1,19.6,63,63,0,0,0-6.18,28.28,63.71,63.71,0,0,0,6.18,28.4,49.14,49.14,0,0,0,17.1,19.86A43.44,43.44,0,0,0,1805.31,384.68Z"/></g></g></svg>