<svg xmlns="http://www.w3.org/2000/svg" viewBox="0 0 1417.75 247.25"><title>Asset 8</title><g id="Layer_2" data-name="Layer 2"><g id="Layer_1-2" data-name="Layer 1"><path d="M159.14,53.13a7.87,7.87,0,0,1,3.68,5.39A8.31,8.31,0,0,1,161,65a5.84,5.84,0,0,1-4.6,2.76,12.22,12.22,0,0,1-5.66-1.18,82.47,82.47,0,0,0-21.31-10.26A80,80,0,0,0,105,52.6,76.55,76.55,0,0,0,75.1,58.39,72.31,72.31,0,0,0,51,74.7a73.78,73.78,0,0,0-15.91,25,86.48,86.48,0,0,0-5.66,31.83A87.4,87.4,0,0,0,35.25,164a74,74,0,0,0,16.17,25.12,70.75,70.75,0,0,0,24.07,16A78,78,0,0,0,105,210.69,78.81,78.81,0,0,0,129.28,207a94,94,0,0,0,21.44-10,8.3,8.3,0,0,1,5.52-1.18,7.62,7.62,0,0,1,5,3,8.28,8.28,0,0,1,1.58,6.32,6.48,6.48,0,0,1-3.42,5,105.25,105.25,0,0,1-15.52,8,102.18,102.18,0,0,1-18.94,5.92,97,97,0,0,1-20,2.1,93.12,93.12,0,0,1-35.64-6.84,90.28,90.28,0,0,1-49.58-49.19q-7.36-17.35-7.37-38.66A95.47,95.47,0,0,1,19.6,93.9,93.93,93.93,0,0,1,39.46,64.05,90.2,90.2,0,0,1,68.92,44.19a91.62,91.62,0,0,1,36-7.1,99.8,99.8,0,0,1,28.94,4.2A93.15,93.15,0,0,1,159.14,53.13Z" transform="translate(-12.36 -28.93)"/><path d="M200.43,223.58a7.88,7.88,0,0,1-8.15-7.89V97.85a7.57,7.57,0,0,1,2.37-5.53A7.88,7.88,0,0,1,200.43,90a7.48,7.48,0,0,1,5.66,2.36,7.81,7.81,0,0,1,2.24,5.53V137.3l-4,.79a60.51,60.51,0,0,1,4.6-18.28,62.7,62.7,0,0,1,10.39-16.7A52.31,52.31,0,0,1,235,90.75,43.38,43.38,0,0,1,255.41,86a22.7,22.7,0,0,1,9.21,2q4.47,2,4.47,6.45a8.2,8.2,0,0,1-2.11,6,6.83,6.83,0,0,1-5,2.1,12,12,0,0,1-5.13-1.31,16.94,16.94,0,0,0-7.24-1.32,28.83,28.83,0,0,0-14.73,4.34A50.66,50.66,0,0,0,221.48,116a60,60,0,0,0-9.6,16.44,49.75,49.75,0,0,0-3.55,18.28v65a8.1,8.1,0,0,1-7.9,7.89Z" transform="translate(-12.36 -28.93)"/><path d="M394,86.8a7.43,7.43,0,0,1,5.65,2.37,7.8,7.8,0,0,1,2.24,5.52v116q0,21.3-8.42,35.9a55.89,55.89,0,0,1-22.62,22.1q-14.2,7.5-32.35,7.5a83.12,83.12,0,0,1-20.91-2.5A58.86,58.86,0,0,1,302,267.51a12.59,12.59,0,0,1-4.74-4.61,5.88,5.88,0,0,1-.26-5.65,7.7,7.7,0,0,1,4.07-4.87,6.72,6.72,0,0,1,5.66.13q4.47,2.37,12.89,5.79a50.65,50.65,0,0,0,19.2,3.42q14.46,0,25-6.05a41.83,41.83,0,0,0,16.44-17.49q5.91-11.44,5.92-27.23V192l1.84,6.58a45.38,45.38,0,0,1-11.31,14.2,56.64,56.64,0,0,1-16.57,9.87,54.32,54.32,0,0,1-19.73,3.55q-15.78,0-26.17-6.45A39.65,39.65,0,0,1,298.68,202q-5.13-11.31-5.13-26.57V94.69a7.86,7.86,0,0,1,8.15-7.89,7.45,7.45,0,0,1,5.66,2.37,7.79,7.79,0,0,1,2.23,5.52v78.39q0,18.4,8,28.4t26.17,10a41.33,41.33,0,0,0,20.78-5.39,46.41,46.41,0,0,0,15.52-14.21,32.63,32.63,0,0,0,6.05-18.8V94.69a8.07,8.07,0,0,1,2.1-5.52A7.34,7.34,0,0,1,394,86.8Z" transform="translate(-12.36 -28.93)"/><path d="M507.13,88.11q17.89,0,31.7,8.82a63.05,63.05,0,0,1,22,24.2Q569,136.51,569,156.5T560.79,192a63.54,63.54,0,0,1-22.09,24.47,56.77,56.77,0,0,1-31.3,8.94,55,55,0,0,1-17.5-2.76,59.3,59.3,0,0,1-15.12-7.5,59,59,0,0,1-20.52-25l4.74-3.68V268.3a7.8,7.8,0,0,1-2.24,5.52,7.44,7.44,0,0,1-5.65,2.37,7.86,7.86,0,0,1-5.79-2.37A7.57,7.57,0,0,1,443,268.3V96.79A8.12,8.12,0,0,1,445.19,91a7.74,7.74,0,0,1,5.92-2.37A7.44,7.44,0,0,1,456.76,91,8.12,8.12,0,0,1,459,96.79V125.2l-3.69-2.1a46,46,0,0,1,7.76-14.6,53.09,53.09,0,0,1,27-18A60.88,60.88,0,0,1,507.13,88.11Zm-1.31,14.73a45,45,0,0,0-25,7,48.62,48.62,0,0,0-17,18.93q-6.18,12-6.18,27.75a61.52,61.52,0,0,0,6.18,27.89,48,48,0,0,0,17,19.33,45,45,0,0,0,25,7,43.87,43.87,0,0,0,24.59-7,48.42,48.42,0,0,0,16.84-19.33,61.65,61.65,0,0,0,6.18-27.89,60,60,0,0,0-6.18-27.61,48.81,48.81,0,0,0-16.84-19.07A43.87,43.87,0,0,0,505.82,102.84Z" transform="translate(-12.36 -28.93)"/><path d="M592.88,89.69h61.29a7,7,0,0,1,5.26,2.24,7.6,7.6,0,0,1,2.1,5.39,7.19,7.19,0,0,1-7.36,7.37H592.88a7.65,7.65,0,0,1-7.63-7.63,6.92,6.92,0,0,1,2.24-5.26A7.6,7.6,0,0,1,592.88,89.69ZM620,52.6A7.45,7.45,0,0,1,625.63,55a7.8,7.8,0,0,1,2.23,5.53v132q0,7.36,2,11.05a9.7,9.7,0,0,0,5.13,4.86,17.8,17.8,0,0,0,6.31,1.19,10.51,10.51,0,0,0,3.81-.66,10.52,10.52,0,0,1,3.82-.66,5.38,5.38,0,0,1,4.07,1.84,6.7,6.7,0,0,1,1.71,4.74q0,3.69-4.2,6.18a19.23,19.23,0,0,1-10,2.5q-2.37,0-7.1-.4a26.5,26.5,0,0,1-9.73-2.89q-5-2.49-8.42-8.81t-3.42-18.15V60.5A7.57,7.57,0,0,1,614.19,55,7.84,7.84,0,0,1,620,52.6Z" transform="translate(-12.36 -28.93)"/><path d="M813.57,156.24q0,20-8.81,35.91a65.92,65.92,0,0,1-23.81,25,67.69,67.69,0,0,1-67.73,0,65.57,65.57,0,0,1-23.94-25q-8.81-15.92-8.81-35.91,0-20.25,8.81-36a66.83,66.83,0,0,1,23.94-25,66.87,66.87,0,0,1,67.73,0,67.19,67.19,0,0,1,23.81,25Q813.57,136,813.57,156.24Zm-16.05,0q0-16-6.57-28.54a49.94,49.94,0,0,0-18-19.59,50.77,50.77,0,0,0-51.82,0A50.85,50.85,0,0,0,703,127.7q-6.71,12.49-6.71,28.54T703,184.65a52.18,52.18,0,0,0,18.15,19.6,50,50,0,0,0,51.82,0,51.23,51.23,0,0,0,18-19.6Q797.52,172.29,797.52,156.24Z" transform="translate(-12.36 -28.93)"/><path d="M920.09,39.45a50.09,50.09,0,0,1,26,6.71A48.46,48.46,0,0,1,964,64.7q6.57,11.85,6.58,27.36A56.64,56.64,0,0,1,964,119.29a50.75,50.75,0,0,1-17.89,19.33,48,48,0,0,1-26,7.1H864.33l1.32-2.37v72.34a8.1,8.1,0,0,1-7.9,7.89,7.33,7.33,0,0,1-5.78-2.37,8,8,0,0,1-2.11-5.52V47.34a7.8,7.8,0,0,1,2.24-5.52,7.43,7.43,0,0,1,5.65-2.37Zm0,91A31.31,31.31,0,0,0,938,125.33a35,35,0,0,0,12-13.94,43.15,43.15,0,0,0,4.34-19.33A41.12,41.12,0,0,0,950,72.73,32.27,32.27,0,0,0,920.09,55H864.33l1.32-2.1V132l-1.58-1.58Z" transform="translate(-12.36 -28.93)"/><path d="M1124.21,156.24q0,20-8.81,35.91a65.92,65.92,0,0,1-23.81,25,67.69,67.69,0,0,1-67.73,0,65.55,65.55,0,0,1-23.93-25q-8.82-15.92-8.82-35.91,0-20.25,8.82-36a66.8,66.8,0,0,1,23.93-25,66.87,66.87,0,0,1,67.73,0,67.19,67.19,0,0,1,23.81,25Q1124.21,136,1124.21,156.24Zm-16,0q0-16-6.58-28.54a49.94,49.94,0,0,0-18-19.59,50.77,50.77,0,0,0-51.82,0,51,51,0,0,0-18.15,19.59q-6.71,12.49-6.7,28.54t6.7,28.41a52.34,52.34,0,0,0,18.15,19.6,50,50,0,0,0,51.82,0,51.23,51.23,0,0,0,18-19.6Q1108.16,172.29,1108.17,156.24Z" transform="translate(-12.36 -28.93)"/><path d="M1280.71,156.24q0,20-8.81,35.91a65.89,65.89,0,0,1-23.8,25,67.69,67.69,0,0,1-67.73,0,65.5,65.5,0,0,1-23.94-25q-8.82-15.92-8.81-35.91,0-20.25,8.81-36a66.75,66.75,0,0,1,23.94-25,66.87,66.87,0,0,1,67.73,0,67.17,67.17,0,0,1,23.8,25Q1280.72,136,1280.71,156.24Zm-16,0q0-16-6.58-28.54a49.92,49.92,0,0,0-18-19.59,50.77,50.77,0,0,0-51.82,0,50.85,50.85,0,0,0-18.15,19.59q-6.7,12.49-6.71,28.54t6.71,28.41a52.18,52.18,0,0,0,18.15,19.6,50,50,0,0,0,51.82,0,51.2,51.2,0,0,0,18-19.6Q1264.66,172.29,1264.67,156.24Z" transform="translate(-12.36 -28.93)"/><path d="M1422.22,28.93a7.45,7.45,0,0,1,5.66,2.37,7.8,7.8,0,0,1,2.24,5.52V215.69a8.1,8.1,0,0,1-7.9,7.89,7.88,7.88,0,0,1-8.15-7.89v-31.3l4.73-3.69a35.28,35.28,0,0,1-3.94,15.65,50.34,50.34,0,0,1-11.18,14.73A59.53,59.53,0,0,1,1386.85,222a51.68,51.68,0,0,1-20.92,4.21,56,56,0,0,1-31.56-9.21,64.86,64.86,0,0,1-22.09-25q-8.16-15.78-8.16-36,0-20,8.16-35.91a63.8,63.8,0,0,1,22.09-25,56.2,56.2,0,0,1,31.3-9.07A54.78,54.78,0,0,1,1386.45,90a57.2,57.2,0,0,1,17.23,10.78,50.64,50.64,0,0,1,11.71,15.65,42,42,0,0,1,4.2,18.28l-5.52-3.94V36.82a7.88,7.88,0,0,1,8.15-7.89Zm-54.71,182.55a43.37,43.37,0,0,0,24.73-7.23,49.8,49.8,0,0,0,17-19.73q6.18-12.5,6.19-28.54a63,63,0,0,0-6.19-28.28,48.77,48.77,0,0,0-17-19.59,46.32,46.32,0,0,0-49.32,0,48.41,48.41,0,0,0-17.1,19.59,63,63,0,0,0-6.18,28.28,63.79,63.79,0,0,0,6.18,28.41,49.27,49.27,0,0,0,17.1,19.86A43.51,43.51,0,0,0,1367.51,211.48Z" transform="translate(-12.36 -28.93)"/></g></g></svg>